<svg width="120" height="26" viewBox="0 0 120 26" fill="none" xmlns="http://www.w3.org/2000/svg">
<g clip-path="url(#clip0_727_2162)">
<path d="M51.1865 0.5C48.6374 0.5 46.1696 1.22292 44.0543 2.58991C42.7526 3.4837 41.2611 4.8244 40.1221 6.55941H40.1357L40.0272 6.73029C38.9831 8.4653 38.3865 10.4369 38.3052 12.448H43.6204C43.9187 8.60989 47.2001 5.63933 51.2001 5.63933C55.3899 5.63933 58.7933 8.93849 58.7933 13C58.7933 17.0615 55.3899 20.3607 51.2001 20.3607C50.8747 20.3607 50.5628 20.3475 50.2374 20.295C49.1255 22.2797 47.6069 23.6861 46.3865 24.5931C47.9052 25.1845 49.5323 25.4869 51.2001 25.4869C58.3052 25.4869 64.095 19.8875 64.095 12.9869C64.0815 6.09937 58.2916 0.5 51.1865 0.5Z" fill="#A3A3D9"/>
<path d="M49.3423 13.2886H44.0406C43.8779 17.2056 40.5152 20.3601 36.4474 20.3601C32.2576 20.3601 28.8542 17.061 28.8542 12.9995C28.8542 8.93796 32.2576 5.6388 36.4474 5.6388C36.8271 5.6388 37.1932 5.66509 37.5593 5.71766C38.7796 3.7592 40.4338 2.43165 41.7355 1.59043C40.0813 0.867506 38.2915 0.486328 36.4474 0.486328C29.3288 0.486328 23.5525 6.0857 23.5525 12.9863C23.5525 19.887 29.3288 25.4863 36.4474 25.4863C38.2372 25.4863 39.9728 25.1314 41.5864 24.4479C41.7084 24.3954 41.8305 24.3428 41.9525 24.2902C42.2644 24.1456 42.6033 23.9748 42.9559 23.7776C43.1593 23.6593 43.3627 23.541 43.5661 23.4096C44.9084 22.5421 46.4 21.2539 47.5254 19.3875C48.4881 17.8102 49.1932 15.8123 49.3423 13.2886Z" fill="white" fill-opacity="0.2"/>
<path d="M16.5288 10.9492H5.32881V1.36719H0V25.1711H5.32881V15.6942H16.5288V25.1711H21.8441V1.36719H16.5288V10.9492Z" fill="white"/>
<path d="M102.563 25.1717H108L101.505 4.73268C101.085 3.43141 100.393 2.4719 99.4035 1.85413C98.4137 1.22321 97.3289 0.920898 96.1357 0.920898C94.9967 0.920898 93.9256 1.23636 92.9222 1.85413C91.9188 2.48504 91.2137 3.44456 90.8069 4.73268L85.0306 22.9109L83.7967 20.4661C83.1459 19.1517 82.5086 18.0739 81.912 17.2327C81.3832 16.4966 80.7595 15.9314 80.0408 15.5239C80.6103 15.3794 81.1527 15.1822 81.6408 14.9062C82.7391 14.3147 83.5933 13.5129 84.2171 12.4877C84.8408 11.4624 85.1527 10.2795 85.1527 8.93877C85.1527 7.24319 84.7188 5.83678 83.8645 4.71953C82.9967 3.60229 81.8306 2.76107 80.3391 2.20902C78.8611 1.65697 77.1933 1.38094 75.3357 1.38094H65.8984V25.1848H71.1459L71.173 17.5876H73.2611C74.1832 17.5876 74.9425 17.719 75.5391 17.9819C76.1357 18.2448 76.6374 18.6128 77.0578 19.1123C77.4645 19.6118 77.8578 20.2164 78.2239 20.9524L80.4069 25.198H84.312H86.1696H89.7493L91.1866 20.3478L101.112 20.3215L102.563 25.1717ZM75.3493 12.974H71.2001L71.2272 6.15223H75.4171C76.2171 6.15223 76.9493 6.27053 77.5866 6.49398C78.2374 6.71743 78.7391 7.07232 79.1188 7.55865C79.4984 8.04498 79.6883 8.68904 79.6883 9.49083C79.6883 10.2269 79.4984 10.8578 79.1188 11.3836C78.7391 11.9093 78.2374 12.3168 77.5866 12.5797C76.9357 12.8294 76.19 12.974 75.3493 12.974ZM92.5696 15.6948L95.3764 6.25739C95.5256 5.7842 95.7832 5.54761 96.1764 5.54761C96.5696 5.54761 96.8272 5.7842 96.9764 6.25739L99.7561 15.6948H92.5696Z" fill="white"/>
<path d="M47.6069 19.2696C48.6916 17.4557 49.2882 15.3921 49.3425 13.2891C49.1933 15.8127 48.4882 17.8106 47.5391 19.3879L47.6069 19.2696Z" fill="white"/>
</g>
<defs>
<clipPath id="clip0_727_2162">
<rect width="108" height="25" fill="white" transform="translate(0 0.5)"/>
</clipPath>
</defs>
</svg>
