<svg width="20" height="20" viewBox="0 0 20 20" fill="none" xmlns="http://www.w3.org/2000/svg">
<path d="M9.99997 0.580078C5.61613 0.580078 1.70509 3.73104 0.788054 8.02176C0.329894 10.1657 0.638534 12.4454 1.66069 14.3854C2.64445 16.2523 4.25725 17.7612 6.18685 18.6163C8.19397 19.506 10.4982 19.661 12.6078 19.0543C14.643 18.4692 16.4476 17.185 17.6761 15.461C20.2449 11.857 19.9014 6.7944 16.8793 3.56496C15.1081 1.67232 12.5925 0.580078 9.99997 0.580078ZM14.5189 10.5034L11.9509 13.1333C11.3008 13.7993 10.2731 12.7903 10.9206 12.1274L12.2164 10.8005H6.07573C5.63965 10.8005 5.27581 10.4364 5.27581 10.0006C5.27581 9.56472 5.63989 9.20064 6.07573 9.20064H12.1857L10.8642 7.87944C10.2076 7.2228 11.2257 6.20448 11.8823 6.86112L14.5129 9.49152C14.7918 9.77016 14.7945 10.2214 14.5189 10.5034Z" fill="white"/>
</svg>
