<svg width="746" height="900" viewBox="0 0 746 900" fill="none" xmlns="http://www.w3.org/2000/svg">
<path d="M392.162 1068.02C399.811 1072.43 409.587 1069.81 414.006 1062.16L612.255 719.259L810.504 1062.16C814.923 1069.81 824.698 1072.43 832.347 1068.02L1039.02 948.858C1046.68 944.44 1049.31 934.645 1044.88 926.988L839.569 571.863L1228 571.863C1236.84 571.863 1244 564.7 1244 555.863V317.576C1244 308.74 1236.84 301.576 1228 301.576L853.735 301.576L1019.99 14.0117C1024.42 6.35519 1021.79 -3.44029 1014.13 -7.85773L807.454 -127.018C799.805 -131.428 790.03 -128.808 785.611 -121.165L612.255 178.685L438.899 -121.165C434.48 -128.808 424.704 -131.428 417.055 -127.018L210.38 -7.85773C202.719 -3.44029 200.094 6.35516 204.52 14.0117L370.774 301.576L16 301.576C7.16346 301.576 2.30532e-05 308.74 2.2279e-05 317.576L1.40182e-06 555.863C6.27615e-07 564.7 7.16344 571.863 16 571.863H384.941L179.627 926.988C175.201 934.645 177.826 944.44 185.487 948.858L392.162 1068.02Z" fill="white" fill-opacity="0.1"/>
</svg>
